<svg width="12" height="10" viewBox="0 0 12 10" fill="none" xmlns="http://www.w3.org/2000/svg">
<path d="M-0.00195312 4.99962C-0.00198936 5.14414 0.0293894 5.28694 0.0900078 5.41813C0.150625 5.54931 0.239035 5.66576 0.349113 5.75939L4.44858 9.25336C4.51592 9.31034 4.60311 9.3383 4.69103 9.33112C4.77895 9.32393 4.86044 9.28219 4.91764 9.21504C4.97484 9.14789 5.00309 9.0608 4.9962 8.97285C4.98931 8.88491 4.94784 8.80328 4.88088 8.74586L0.87648 5.33296H11.6647C11.7531 5.33296 11.8379 5.29784 11.9004 5.23533C11.9629 5.17282 11.998 5.08803 11.998 4.99962C11.998 4.91122 11.9629 4.82643 11.9004 4.76392C11.8379 4.70141 11.7531 4.66629 11.6647 4.66629H0.87648L4.88085 1.25336C4.94781 1.19593 4.98928 1.11431 4.99617 1.02636C5.00306 0.938418 4.97481 0.851328 4.9176 0.784175C4.8604 0.717022 4.77891 0.675282 4.69099 0.6681C4.60307 0.660917 4.51589 0.688879 4.44855 0.745858L0.349279 4.23962C0.239151 4.33328 0.1507 4.44975 0.0900517 4.58098C0.0294046 4.71221 -0.00198936 4.85506 -0.00195312 4.99962Z" fill="#19453F"/>
</svg>
