<svg width="4" height="16" viewBox="0 0 4 16" fill="none" xmlns="http://www.w3.org/2000/svg">
<path d="M2.00045 2.66667C2.73683 2.66667 3.33378 2.06971 3.33378 1.33333C3.33378 0.596954 2.73683 0 2.00045 0C1.26407 0 0.667114 0.596954 0.667114 1.33333C0.667114 2.06971 1.26407 2.66667 2.00045 2.66667Z" fill="black" style="fill:black;fill-opacity:1;"/>
<path d="M2.00045 9.33366C2.73683 9.33366 3.33378 8.73671 3.33378 8.00033C3.33378 7.26395 2.73683 6.66699 2.00045 6.66699C1.26407 6.66699 0.667114 7.26395 0.667114 8.00033C0.667114 8.73671 1.26407 9.33366 2.00045 9.33366Z" fill="black" style="fill:black;fill-opacity:1;"/>
<path d="M2.00045 15.9997C2.73683 15.9997 3.33378 15.4027 3.33378 14.6663C3.33378 13.93 2.73683 13.333 2.00045 13.333C1.26407 13.333 0.667114 13.93 0.667114 14.6663C0.667114 15.4027 1.26407 15.9997 2.00045 15.9997Z" fill="black" style="fill:black;fill-opacity:1;"/>
</svg>
