<svg width="14" height="14" viewBox="0 0 14 14" fill="none" xmlns="http://www.w3.org/2000/svg">
<path d="M12.8316 0H9.33948V1.16402H12.0086L8.03226 5.14038C5.88025 3.44288 2.75962 3.81134 1.06212 5.96334C-0.635382 8.11535 -0.266898 11.236 1.88511 12.9335C4.03712 14.631 7.15775 14.2625 8.85525 12.1105C10.277 10.3081 10.277 7.76579 8.85525 5.96337L12.8316 1.98702V4.65615H13.9956V1.16402C13.9956 0.521145 13.4745 0 12.8316 0ZM4.97435 12.8044C2.88499 12.8044 1.19124 11.1106 1.19124 9.02128C1.19124 6.93191 2.88499 5.23816 4.97435 5.23816C7.06372 5.23816 8.75747 6.93191 8.75747 9.02128C8.7549 11.1096 7.06265 12.8018 4.97435 12.8044Z" fill="#5E6D55" style="fill:#5E6D55;fill:color(display-p3 0.3686 0.4275 0.3333);fill-opacity:1;"/>
</svg>
