<svg width="20" height="16" viewBox="0 0 20 16" fill="none" xmlns="http://www.w3.org/2000/svg">
<path d="M19.381 5.84977C18.9956 5.19356 18.5506 4.57428 18.0517 3.99977C17.5496 3.4491 17.0192 2.92506 16.4625 2.42977C15.752 1.82497 14.9443 1.34485 14.0737 1.00977C13.3542 0.693197 12.5991 0.464872 11.8248 0.32977C11.22 0.234467 10.6078 0.194302 9.99569 0.20977C8.0752 0.247672 6.19814 0.788321 4.55147 1.77787C2.90481 2.76741 1.546 4.17132 0.610385 5.84977C0.211354 6.49584 0 7.2403 0 7.99977C0 8.75924 0.211354 9.5037 0.610385 10.1498C0.995763 10.806 1.44076 11.4253 1.93972 11.9998C2.17015 12.2619 2.41367 12.5122 2.66936 12.7498C2.90924 12.9698 3.11913 13.2198 3.369 13.4298C4.30222 14.1906 5.36088 14.7828 6.49744 15.1798C7.22535 15.4406 7.97938 15.6216 8.74632 15.7198C9.16098 15.7683 9.5782 15.7917 9.99569 15.7898C11.9162 15.7519 13.7932 15.2112 15.4399 14.2217C17.0866 13.2321 18.4454 11.8282 19.381 10.1498C19.78 9.5037 19.9914 8.75924 19.9914 7.99977C19.9914 7.2403 19.78 6.49584 19.381 5.84977ZM17.9917 9.27977C17.1945 10.7124 16.0377 11.9123 14.6355 12.7611C13.2333 13.6099 11.634 14.0782 9.99569 14.1198C9.32239 14.1162 8.65171 14.0357 7.99669 13.8798C7.50419 13.7678 7.02505 13.6035 6.56741 13.3898C6.06596 13.1241 5.58189 12.8269 5.11813 12.4998C4.64154 12.1863 4.19338 11.8316 3.7788 11.4398C3.23328 10.8975 2.74434 10.3011 2.31953 9.65977L1.99969 9.27977C1.7582 8.89656 1.63005 8.45279 1.63005 7.99977C1.63005 7.54675 1.7582 7.10298 1.99969 6.71977C2.79688 5.28712 3.95367 4.0872 5.3559 3.23843C6.75813 2.38966 8.35733 1.92136 9.99569 1.87977C11.5692 1.89421 13.1107 2.32551 14.4635 3.12977C14.7033 3.26977 14.9432 3.41977 15.1731 3.57977C15.403 3.73977 15.5429 3.91977 15.7328 4.06977C16.3046 4.565 16.8237 5.11793 17.282 5.71977C17.5219 6.03977 17.7518 6.37977 17.9617 6.71977C18.2032 7.10298 18.3314 7.54675 18.3314 7.99977C18.3314 8.45279 18.2032 8.89656 17.9617 9.27977H17.9917Z" fill="#19453F" style="fill:#19453F;fill:color(display-p3 0.0980 0.2706 0.2471);fill-opacity:1;"/>
<path d="M13.4837 5.68956C13.3673 5.52213 13.2369 5.3649 13.0939 5.21956C12.8952 5.0108 12.6814 4.81694 12.4543 4.63956C11.5693 4.03259 10.4848 3.78953 9.42561 3.96075C8.3664 4.13197 7.41363 4.70435 6.76473 5.55926C6.11583 6.41418 5.82055 7.4861 5.94008 8.55291C6.05961 9.61971 6.58478 10.5996 7.40678 11.2896C7.71373 11.5196 8.04983 11.7079 8.40628 11.8496C8.72726 11.9798 9.06289 12.0705 9.40578 12.1196C9.73849 12.144 10.0726 12.144 10.4053 12.1196C11.3612 12.023 12.2544 11.599 12.9337 10.9193C13.6131 10.2396 14.0369 9.34594 14.1334 8.38956C14.2244 7.44222 13.9957 6.49169 13.4837 5.68956ZM11.7646 9.76956C11.5629 9.96409 11.3297 10.123 11.0749 10.2396H11.015C10.7003 10.3803 10.3601 10.4551 10.0155 10.4596C9.35849 10.4572 8.72821 10.1991 8.25808 9.73998C7.78796 9.28082 7.5149 8.65662 7.49673 7.99956C7.49664 7.33628 7.75896 6.69993 8.22637 6.22956L8.43626 6.05956L8.5662 5.99956L8.7661 5.86956L8.99598 5.71956C9.35906 5.55477 9.7564 5.47966 10.1545 5.50057C10.5527 5.52147 10.94 5.63777 11.2838 5.83967C11.6277 6.04158 11.918 6.32318 12.1304 6.66077C12.3428 6.99836 12.471 7.38205 12.5042 7.77956C12.5092 7.85281 12.5092 7.92631 12.5042 7.99956C12.5017 8.66427 12.2357 9.30082 11.7646 9.76956Z" fill="#19453F" style="fill:#19453F;fill:color(display-p3 0.0980 0.2706 0.2471);fill-opacity:1;"/>
</svg>
