<svg width="4" height="12" viewBox="0 0 4 12" fill="none" xmlns="http://www.w3.org/2000/svg">
<path d="M2.00015 0C2.66415 0 3.20015 0.536 3.20015 1.2C3.20015 1.864 2.66415 2.4 2.00015 2.4C1.33615 2.4 0.800146 1.864 0.800146 1.2C0.800146 0.536 1.33615 0 2.00015 0ZM3.60015 11.2C3.60015 11.64 3.24015 12 2.80015 12C2.36015 12 2.00015 11.64 2.00015 11.2V6.4C2.00015 5.96 1.64015 5.6 1.20015 5.6C0.760146 5.6 0.400146 5.24 0.400146 4.8C0.400146 4.36 0.760146 4 1.20015 4C2.52015 4 3.60015 5.08 3.60015 6.4V11.2Z" fill="#19453F" style="fill:#19453F;fill:color(display-p3 0.0980 0.2706 0.2471);fill-opacity:1;"/>
</svg>
