<svg width="21" height="18" viewBox="0 0 21 18" fill="none" xmlns="http://www.w3.org/2000/svg">
<path d="M16.3333 17.3337H4.66667C2.36917 17.3337 0.5 15.4645 0.5 13.167V4.83366C0.5 2.53616 2.36917 0.666992 4.66667 0.666992H16.3333C18.6308 0.666992 20.5 2.53616 20.5 4.83366V13.167C20.5 15.4645 18.6308 17.3337 16.3333 17.3337ZM4.66667 2.33366C3.28833 2.33366 2.16667 3.45533 2.16667 4.83366V13.167C2.16667 14.5453 3.28833 15.667 4.66667 15.667H16.3333C17.7117 15.667 18.8333 14.5453 18.8333 13.167V4.83366C18.8333 3.45533 17.7117 2.33366 16.3333 2.33366H4.66667ZM15.5 9.83366H12.1667C11.2475 9.83366 10.5 9.08616 10.5 8.16699V6.50033C10.5 5.58116 11.2475 4.83366 12.1667 4.83366H15.5C16.4192 4.83366 17.1667 5.58116 17.1667 6.50033V8.16699C17.1667 9.08616 16.4192 9.83366 15.5 9.83366ZM12.1667 6.50033V8.16699H15.5008V6.50033H12.1667ZM8.83333 9.00033C8.83333 8.54033 8.46 8.16699 8 8.16699H4.66667C4.20667 8.16699 3.83333 8.54033 3.83333 9.00033C3.83333 9.46033 4.20667 9.83366 4.66667 9.83366H8C8.46 9.83366 8.83333 9.46033 8.83333 9.00033ZM17.1667 12.3337C17.1667 11.8737 16.7933 11.5003 16.3333 11.5003H4.66667C4.20667 11.5003 3.83333 11.8737 3.83333 12.3337C3.83333 12.7937 4.20667 13.167 4.66667 13.167H16.3333C16.7933 13.167 17.1667 12.7937 17.1667 12.3337Z" fill="black" style="fill:black;fill-opacity:1;"/>
</svg>
