<svg width="20" height="18" viewBox="0 0 20 18" fill="none" xmlns="http://www.w3.org/2000/svg">
<path d="M15.8333 17.3337H4.16667C1.86917 17.3337 0 15.4645 0 13.167V4.83366C0 2.53616 1.86917 0.666992 4.16667 0.666992H15.8333C18.1308 0.666992 20 2.53616 20 4.83366V13.167C20 15.4645 18.1308 17.3337 15.8333 17.3337ZM4.16667 2.33366C2.78833 2.33366 1.66667 3.45533 1.66667 4.83366V13.167C1.66667 14.5453 2.78833 15.667 4.16667 15.667H15.8333C17.2117 15.667 18.3333 14.5453 18.3333 13.167V4.83366C18.3333 3.45533 17.2117 2.33366 15.8333 2.33366H4.16667ZM15 9.83366H11.6667C10.7475 9.83366 10 9.08616 10 8.16699V6.50033C10 5.58116 10.7475 4.83366 11.6667 4.83366H15C15.9192 4.83366 16.6667 5.58116 16.6667 6.50033V8.16699C16.6667 9.08616 15.9192 9.83366 15 9.83366ZM11.6667 6.50033V8.16699H15.0008V6.50033H11.6667ZM8.33333 9.00033C8.33333 8.54033 7.96 8.16699 7.5 8.16699H4.16667C3.70667 8.16699 3.33333 8.54033 3.33333 9.00033C3.33333 9.46033 3.70667 9.83366 4.16667 9.83366H7.5C7.96 9.83366 8.33333 9.46033 8.33333 9.00033ZM16.6667 12.3337C16.6667 11.8737 16.2933 11.5003 15.8333 11.5003H4.16667C3.70667 11.5003 3.33333 11.8737 3.33333 12.3337C3.33333 12.7937 3.70667 13.167 4.16667 13.167H15.8333C16.2933 13.167 16.6667 12.7937 16.6667 12.3337Z" fill="black" style="fill:black;fill-opacity:1;"/>
</svg>
