<svg width="14" height="14" viewBox="0 0 14 14" fill="none" xmlns="http://www.w3.org/2000/svg">
<path d="M7.583 0.583288C7.583 0.428579 7.64446 0.280206 7.75385 0.170809C7.86325 0.0614132 8.01162 -4.49981e-05 8.16633 -4.49981e-05C9.71291 0.00165343 11.1957 0.61678 12.2892 1.71037C13.3828 2.80397 13.998 4.28671 13.9997 5.83329C13.9997 5.988 13.9382 6.13637 13.8288 6.24577C13.7194 6.35516 13.571 6.41662 13.4163 6.41662C13.2616 6.41662 13.1132 6.35516 13.0039 6.24577C12.8945 6.13637 12.833 5.988 12.833 5.83329C12.8316 4.59604 12.3395 3.40986 11.4646 2.53499C10.5898 1.66012 9.40358 1.16801 8.16633 1.16662C8.01162 1.16662 7.86325 1.10516 7.75385 0.995767C7.64446 0.886371 7.583 0.737998 7.583 0.583288ZM8.16633 3.49995C8.78517 3.49995 9.37866 3.74579 9.81625 4.18337C10.2538 4.62096 10.4997 5.21445 10.4997 5.83329C10.4997 5.988 10.5611 6.13637 10.6705 6.24577C10.7799 6.35516 10.9283 6.41662 11.083 6.41662C11.2377 6.41662 11.3861 6.35516 11.4955 6.24577C11.6049 6.13637 11.6663 5.988 11.6663 5.83329C11.6654 4.90531 11.2964 4.01561 10.6402 3.35944C9.98401 2.70326 9.09431 2.33421 8.16633 2.33329C8.01162 2.33329 7.86325 2.39475 7.75385 2.50414C7.64446 2.61354 7.583 2.76191 7.583 2.91662C7.583 3.07133 7.64446 3.2197 7.75385 3.3291C7.86325 3.4385 8.01162 3.49995 8.16633 3.49995ZM13.4706 9.76437C13.8086 10.1034 13.9985 10.5626 13.9985 11.0413C13.9985 11.52 13.8086 11.9792 13.4706 12.3182L12.9397 12.9301C8.16225 17.504 -3.46358 5.88112 1.03975 1.08845L1.71058 0.505122C2.04995 0.176517 2.50504 -0.00526637 2.97741 -0.000899674C3.44978 0.00346702 3.90143 0.193632 4.23467 0.528455C4.25275 0.546538 5.33367 1.95062 5.33367 1.95062C5.6544 2.28757 5.83294 2.73516 5.83218 3.20036C5.83142 3.66555 5.65142 4.11256 5.32958 4.44845L4.65408 5.29779C5.02791 6.2061 5.57754 7.0316 6.27138 7.72684C6.96522 8.42209 7.78961 8.97338 8.69717 9.34904L9.55175 8.66946C9.88769 8.34787 10.3346 8.16808 10.7997 8.16743C11.2647 8.16677 11.7122 8.34531 12.049 8.66595C12.049 8.66595 13.4525 9.74629 13.4706 9.76437ZM12.6679 10.6125C12.6679 10.6125 11.272 9.53862 11.2539 9.52054C11.1337 9.40138 10.9714 9.33453 10.8021 9.33453C10.6329 9.33453 10.4705 9.40138 10.3503 9.52054C10.3346 9.53687 9.158 10.4743 9.158 10.4743C9.07871 10.5374 8.98435 10.5788 8.88421 10.5943C8.78407 10.6099 8.68161 10.5991 8.58692 10.563C7.41118 10.1252 6.34326 9.43989 5.45549 8.55342C4.56771 7.66695 3.88082 6.60004 3.44133 5.42496C3.40237 5.32897 3.38966 5.22434 3.40453 5.12182C3.41939 5.0193 3.46129 4.92259 3.52592 4.84162C3.52592 4.84162 4.46333 3.66445 4.47908 3.64929C4.59824 3.52911 4.6651 3.36673 4.6651 3.1975C4.6651 3.02826 4.59824 2.86588 4.47908 2.7457C4.461 2.7282 3.38708 1.33112 3.38708 1.33112C3.26511 1.22175 3.10592 1.16318 2.94214 1.16741C2.77837 1.17164 2.62242 1.23835 2.50625 1.35387L1.83542 1.9372C-1.45575 5.89454 8.619 15.4105 12.0869 12.1333L12.6183 11.5208C12.7429 11.4054 12.8177 11.2462 12.8269 11.0767C12.8362 10.9072 12.7791 10.7408 12.6679 10.6125Z" fill="#5E6D55" style="fill:#5E6D55;fill:color(display-p3 0.3686 0.4275 0.3333);fill-opacity:1;"/>
</svg>
