<svg width="21" height="20" viewBox="0 0 21 20" fill="none" xmlns="http://www.w3.org/2000/svg">
<path d="M20.0832 9.94832C20.0832 10.4773 19.6538 10.9067 19.1248 10.9067H11.4582V18.5733C11.4582 19.1023 11.0288 19.5317 10.4998 19.5317C9.97084 19.5317 9.5415 19.1023 9.5415 18.5733V10.9067H1.87484C1.34584 10.9067 0.916504 10.4773 0.916504 9.94832C0.916504 9.41932 1.34584 8.98999 1.87484 8.98999H9.5415V1.32332C9.5415 0.794324 9.97084 0.36499 10.4998 0.36499C11.0288 0.36499 11.4582 0.794324 11.4582 1.32332V8.98999H19.1248C19.6538 8.98999 20.0832 9.41932 20.0832 9.94832Z" fill="#5E6D55" style="fill:#5E6D55;fill:color(display-p3 0.3686 0.4275 0.3333);fill-opacity:1;"/>
</svg>
