<svg width="20" height="20" viewBox="0 0 20 20" fill="none" xmlns="http://www.w3.org/2000/svg">
<path d="M10 0C4.48583 0 0 4.48583 0 10C0 15.5142 4.48583 20 10 20C15.5142 20 20 15.5142 20 10C20 4.48583 15.5142 0 10 0ZM6.66667 17.6367V17.5C6.66667 15.6617 8.16167 14.1667 10 14.1667C11.8383 14.1667 13.3333 15.6617 13.3333 17.5V17.6367C12.3117 18.0842 11.185 18.3333 10 18.3333C8.815 18.3333 7.68833 18.0842 6.66667 17.6367ZM14.9375 16.7092C14.5575 14.3267 12.4883 12.5 10 12.5C7.51167 12.5 5.44333 14.3267 5.0625 16.7092C3.00417 15.19 1.66667 12.7483 1.66667 10C1.66667 5.405 5.405 1.66667 10 1.66667C14.595 1.66667 18.3333 5.405 18.3333 10C18.3333 12.7483 16.9958 15.19 14.9375 16.7092ZM10 4.16667C8.16167 4.16667 6.66667 5.66167 6.66667 7.5C6.66667 9.33833 8.16167 10.8333 10 10.8333C11.8383 10.8333 13.3333 9.33833 13.3333 7.5C13.3333 5.66167 11.8383 4.16667 10 4.16667ZM10 9.16667C9.08083 9.16667 8.33333 8.41917 8.33333 7.5C8.33333 6.58083 9.08083 5.83333 10 5.83333C10.9192 5.83333 11.6667 6.58083 11.6667 7.5C11.6667 8.41917 10.9192 9.16667 10 9.16667Z" fill="#19453F" style="fill:#19453F;fill:color(display-p3 0.0980 0.2706 0.2471);fill-opacity:1;"/>
</svg>
