<svg aria-hidden="true" xmlns="http://www.w3.org/2000/svg" xmlns:xlink="http://www.w3.org/1999/xlink"><symbol viewBox="0 0 12 10" id="arrow-sm" xmlns="http://www.w3.org/2000/svg">
<path d="M-0.00195312 4.99962C-0.00198936 5.14414 0.0293894 5.28694 0.0900078 5.41813C0.150625 5.54931 0.239035 5.66576 0.349113 5.75939L4.44858 9.25336C4.51592 9.31034 4.60311 9.3383 4.69103 9.33112C4.77895 9.32393 4.86044 9.28219 4.91764 9.21504C4.97484 9.14789 5.00309 9.0608 4.9962 8.97285C4.98931 8.88491 4.94784 8.80328 4.88088 8.74586L0.87648 5.33296H11.6647C11.7531 5.33296 11.8379 5.29784 11.9004 5.23533C11.9629 5.17282 11.998 5.08803 11.998 4.99962C11.998 4.91122 11.9629 4.82643 11.9004 4.76392C11.8379 4.70141 11.7531 4.66629 11.6647 4.66629H0.87648L4.88085 1.25336C4.94781 1.19593 4.98928 1.11431 4.99617 1.02636C5.00306 0.938418 4.97481 0.851328 4.9176 0.784175C4.8604 0.717022 4.77891 0.675282 4.69099 0.6681C4.60307 0.660917 4.51589 0.688879 4.44855 0.745858L0.349279 4.23962C0.239151 4.33328 0.1507 4.44975 0.0900517 4.58098C0.0294046 4.71221 -0.00198936 4.85506 -0.00195312 4.99962Z"/>
</symbol><symbol viewBox="0 0 14 14" id="remove" xmlns="http://www.w3.org/2000/svg">
<path d="M13.9729 1.47292L12.5 0L6.98646 5.51354L1.47292 0L0 1.47292L5.51354 6.98646L0 12.5L1.47292 13.9729L6.98646 8.45937L12.5 13.9729L13.9729 12.5L8.45937 6.98646L13.9729 1.47292Z"/>
</symbol><symbol viewBox="0 0 16 16" id="search" xmlns="http://www.w3.org/2000/svg">
<path d="M15.9999 15.0572L11.8252 10.8825C12.9096 9.55625 13.4428 7.86392 13.3144 6.15556C13.1861 4.44721 12.406 2.85354 11.1356 1.7042C9.86516 0.554862 8.20158 -0.0622172 6.48895 -0.019396C4.77632 0.0234252 3.14566 0.72287 1.93426 1.93426C0.72287 3.14566 0.0234252 4.77632 -0.019396 6.48895C-0.0622172 8.20158 0.554862 9.86516 1.7042 11.1356C2.85354 12.406 4.44721 13.1861 6.15556 13.3144C7.86392 13.4428 9.55625 12.9096 10.8825 11.8252L15.0572 15.9999L15.9999 15.0572ZM6.66652 11.9999C5.61169 11.9999 4.58054 11.6871 3.70348 11.101C2.82642 10.515 2.14283 9.68204 1.73916 8.7075C1.3355 7.73296 1.22988 6.6606 1.43567 5.62604C1.64145 4.59147 2.14941 3.64117 2.89529 2.89529C3.64117 2.14941 4.59147 1.64145 5.62604 1.43567C6.6606 1.22988 7.73296 1.3355 8.7075 1.73916C9.68204 2.14283 10.515 2.82642 11.101 3.70348C11.6871 4.58054 11.9999 5.61169 11.9999 6.66652C11.9983 8.08052 11.4359 9.43615 10.436 10.436C9.43615 11.4359 8.08052 11.9983 6.66652 11.9999Z"/>
</symbol></svg>